<svg rpl="" fill="yellow" height="16" icon-name="star-outline" viewBox="0 0 20 20" width="16" xmlns="http://www.w3.org/2000/svg">
  <path 
    d="M15.473 19.566c-.168 0-.333-.036-.485-.107L10 17.127l-4.988 2.332a1.145 1.145 0 0 1-1.62-1.179l.674-5.463L.309 8.793a1.145 1.145 0 0 1 .619-1.9l5.405-1.051L9 1.024a1.192 1.192 0 0 1 2 0l2.665 4.818 5.4 1.046a1.145 1.145 0 0 1 .619 1.9l-3.757 4.024.674 5.464a1.143 1.143 0 0 1-1.135 1.285l.007.005ZM10 15.748l5.345"
    fill="rgb(250,168,26)"
    stroke="black"
    stroke-width="1"
    stroke-linejoin="round"
  />
</svg>
